:version 1.10
:name ASF
:units
  mass 1
  length 1
  angle deg
:documentation
  ASF file generated by Kaydara
:root
  axis xyz
  order  tx ty tz rx ry rz
  position 0 0 0
  orientation 0 0 0
:bonedata
  begin
    id 1
    name lfemurDummy
    direction 0.61522 -0.761478 0.204097
    length 5.68318
    axis 0 -0 0 xyz
  end
  begin
    id 2
    name lfemur
    direction 0.34202 -0.939693 -5.84747e-008
    length 16.9147
    axis 0 -0 20 xyz
    dof rx ry rz
    limits( -inf , inf )
( -inf , inf )
( -inf , inf )

  end
  begin
    id 3
    name ltibia
    direction 0.34202 -0.939693 1.20839e-009
    length 18.0532
    axis 0 -0 20 xyz
    dof rz ry rx
    limits( -inf , inf )
( -inf , inf )
( -inf , inf )

  end
  begin
    id 4
    name lfoot
    direction 0.0841971 -0.23133 0.969225
    length 5.23822
    axis -90 7.62852e-016 20 xyz
    dof ry rx rz
    limits( -inf , inf )
( -inf , inf )
( -inf , inf )

  end
  begin
    id 5
    name ltoes
    direction 0 0 0
    length 0
    axis 0 0 0 xyz
    dof rz ry rx
    limits( -inf , inf )
( -inf , inf )
( -inf , inf )

  end
  begin
    id 6
    name rfemurDummy
    direction -0.625247 -0.75382 0.202044
    length 5.74091
    axis 0 -0 0 xyz
  end
  begin
    id 7
    name rfemur
    direction -0.34202 -0.939693 -1.47013e-008
    length 16.4922
    axis 0 -0 -20 xyz
    dof rx ry rz
    limits( -inf , inf )
( -inf , inf )
( -inf , inf )

  end
  begin
    id 8
    name rtibia
    direction -0.34202 -0.939693 -7.74345e-010
    length 18.2421
    axis 0 -0 -20 xyz
    dof rz ry rx
    limits( -inf , inf )
( -inf , inf )
( -inf , inf )

  end
  begin
    id 9
    name rfoot
    direction -0.124331 -0.341598 0.931586
    length 5.45787
    axis -90 -7.62852e-016 -20 xyz
    dof ry rx rz
    limits( -inf , inf )
( -inf , inf )
( -inf , inf )

  end
  begin
    id 10
    name rtoes
    direction 0 0 0
    length 0
    axis 0 0 0 xyz
    dof rz ry rx
    limits( -inf , inf )
( -inf , inf )
( -inf , inf )

  end
  begin
    id 11
    name lowerbackDummy
    direction 0 0 0
    length 0
    axis 0 -0 0 xyz
  end
  begin
    id 12
    name lowerback
    direction -0.0218484 0.994884 -0.0986304
    length 4.45607
    axis 0 -0 0 xyz
    dof rx ry rz
    limits( -inf , inf )
( -inf , inf )
( -inf , inf )

  end
  begin
    id 13
    name upperback
    direction -0.00973057 0.999717 -0.0217111
    length 4.47449
    axis 0 -0 0 xyz
    dof rx ry rz
    limits( -inf , inf )
( -inf , inf )
( -inf , inf )

  end
  begin
    id 14
    name thorax
    direction -0.000928171 0.999699 0.0245198
    length 4.50973
    axis 0 -0 0 xyz
    dof rx ry rz
    limits( -inf , inf )
( -inf , inf )
( -inf , inf )

  end
  begin
    id 15
    name rclavicle
    direction -0.9009 0.425937 -0.0834055
    length 7.28587
    axis 0 -0 0 xyz
    dof rx ry rz
    limits( -inf , inf )
( -inf , inf )
( -inf , inf )

  end
  begin
    id 16
    name rhumerus
    direction -1 -2.23604e-007 -1.42637e-007
    length 13.5704
    axis 180 30 90 xyz
    dof rx ry rz
    limits( -inf , inf )
( -inf , inf )
( -inf , inf )

  end
  begin
    id 17
    name rradius
    direction -1 5.68281e-008 -4.4952e-007
    length 8.06782
    axis 180 30 90 xyz
    dof rz ry rx
    limits( -inf , inf )
( -inf , inf )
( -inf , inf )

  end
  begin
    id 18
    name rwrist
    direction -1 1.51393e-007 1.38143e-007
    length 4.03391
    axis -90 -90 0 xyz
    dof rz rx ry
    limits( -inf , inf )
( -inf , inf )
( -inf , inf )

  end
  begin
    id 19
    name rthumb
    direction 0 0 0
    length 0
    axis 0 0 0 xyz
    dof ry rx rz
    limits( -inf , inf )
( -inf , inf )
( -inf , inf )

  end
  begin
    id 20
    name rhand
    direction -1 -3.34077e-007 -5.59631e-007
    length 1.29744
    axis -90 -90 0 xyz
    dof ry rx rz
    limits( -inf , inf )
( -inf , inf )
( -inf , inf )

  end
  begin
    id 21
    name rfingers
    direction 0 0 0
    length 0
    axis 0 0 0 xyz
    dof rz ry rx
    limits( -inf , inf )
( -inf , inf )
( -inf , inf )

  end
  begin
    id 22
    name lclavicle
    direction 0.940017 0.332249 -0.0773232
    length 8.29589
    axis 0 -0 0 xyz
    dof rx ry rz
    limits( -inf , inf )
( -inf , inf )
( -inf , inf )

  end
  begin
    id 23
    name lhumerus
    direction 1 7.41158e-008 -1.44768e-008
    length 12.0042
    axis 180 -30 -90 xyz
    dof rx ry rz
    limits( -inf , inf )
( -inf , inf )
( -inf , inf )

  end
  begin
    id 24
    name lradius
    direction 1 -1.32972e-007 3.10821e-007
    length 8.1902
    axis 180 -30 -90 xyz
    dof rz ry rx
    limits( -inf , inf )
( -inf , inf )
( -inf , inf )

  end
  begin
    id 25
    name lwrist
    direction 1 3.08957e-007 4.01394e-007
    length 4.09509
    axis -90 90 0 xyz
    dof rz rx ry
    limits( -inf , inf )
( -inf , inf )
( -inf , inf )

  end
  begin
    id 26
    name lthumb
    direction 0 0 0
    length 0
    axis 0 0 0 xyz
    dof ry rx rz
    limits( -inf , inf )
( -inf , inf )
( -inf , inf )

  end
  begin
    id 27
    name lhand
    direction 1 -1.64125e-007 -6.99514e-007
    length 1.37229
    axis -90 90 0 xyz
    dof ry rx rz
    limits( -inf , inf )
( -inf , inf )
( -inf , inf )

  end
  begin
    id 28
    name lfingers
    direction 0 0 0
    length 0
    axis 0 0 0 xyz
    dof rz ry rx
    limits( -inf , inf )
( -inf , inf )
( -inf , inf )

  end
  begin
    id 29
    name lowerneck
    direction -0.030798 0.998024 0.0547665
    length 3.93918
    axis 0 -0 0 xyz
    dof rx ry rz
    limits( -inf , inf )
( -inf , inf )
( -inf , inf )

  end
  begin
    id 30
    name upperneck
    direction 0.0531588 0.996611 -0.0627736
    length 3.95491
    axis 0 -0 0 xyz
    dof rx ry rz
    limits( -inf , inf )
( -inf , inf )
( -inf , inf )

  end
  begin
    id 31
    name head
    direction 0 0 0
    length 0
    axis 0 0 0 xyz
    dof rx ry rz
    limits( -inf , inf )
( -inf , inf )
( -inf , inf )

  end
:hierarchy
  begin
    root lfemurDummy rfemurDummy lowerbackDummy
    lfemurDummy lfemur
    lfemur ltibia
    ltibia lfoot
    lfoot ltoes
    rfemurDummy rfemur
    rfemur rtibia
    rtibia rfoot
    rfoot rtoes
    lowerbackDummy lowerback
    lowerback upperback
    upperback thorax
    thorax rclavicle lclavicle lowerneck
    rclavicle rhumerus
    rhumerus rradius
    rradius rwrist
    rwrist rthumb rhand
    rhand rfingers
    lclavicle lhumerus
    lhumerus lradius
    lradius lwrist
    lwrist lthumb lhand
    lhand lfingers
    lowerneck upperneck
    upperneck head
  end

:SAMPLES-PER-SECOND 30
:FULLY-SPECIFIED
:DEGREES
10
root  -1.211973344 37.41511247 7.290689213 -178.7969971 -72.63700104 -177.4420166
lowerback  17.9151001 3.076539993 -1.037520051
upperback  4.349890232 3.350359917 -2.453769922
thorax  -5.255680084 1.501749992 -2.74612999
lowerneck  -3.732019901 13.8281002 0.7410230041
upperneck  6.330510139 18.79840088 -5.602009773
head  3.366440058 9.146699905 -1.088850021
lclavicle  0 -9.442270133e-015 7.951389973e-016
lhumerus  -34.08560181 0.001090439968 78.91549683
lradius  2.824341683e-031 -2.119419282e-031 143.1150055
lwrist  -7.062250077e-031 -0 7.074289799
lhand  -1.496451383e-031 -27.76390076 20.11240005
lfingers  90 7.125020027 -90
lthumb  89.89689403 5.08795885 91.16245106
rclavicle  0 -9.442270133e-015 7.951389973e-016
rhumerus  -22.66090012 20.78300095 -78.98000336
rradius  -1.549770868e-031 3.172862161e-031 116.0329971
rwrist  7.062250077e-031 -0 -3.800369978
rhand  -7.920061211e-032 -33.2840004 9.303460121
rfingers  -90 -7.125020027 -90
rthumb  -92.93752616 -24.25625642 -97.11982154
rfemur  -15.15909958 21.61590004 -0.9038640261
rtibia  -0 0 50.9015007
rfoot  -4.713466737e-032 -20.53700066 -5.388989925
rtoes  5.373923086 19.29304026 -105.8922705
lfemur  -29.64360046 1.849110007 2.823719978
ltibia  -0 0 51.46590042
lfoot  9.015894553e-032 -11.72369957 7.10187006
ltoes  -4.250644065 -19.5611806 -102.515957
11
root  -1.368048904 37.32288991 7.392377928 -179.664978 -72.82800293 -177.1090088
lowerback  18.16790009 2.947489977 -0.9094009995
upperback  4.372680187 3.195270061 -2.432019949
thorax  -5.365509987 1.421689987 -2.774509907
lowerneck  -3.954060078 13.84360027 0.7063030005
upperneck  6.141280174 18.82679939 -5.729420185
head  3.353480101 9.157110214 -1.111039996
lclavicle  0 -9.442270133e-015 7.951389973e-016
lhumerus  -35.79219818 0.7406240106 78.95290375
lradius  2.835069559e-031 -2.105047418e-031 143.4060059
lwrist  -7.062250077e-031 -0 6.547770023
lhand  -1.496451383e-031 -27.76390076 20.11240005
lfingers  90 7.125020027 -90
lthumb  89.89689403 5.08795885 91.16245106
rclavicle  0 -9.442270133e-015 7.951389973e-016
rhumerus  -24.98570061 21.46929932 -80.19419861
rradius  -1.464053437e-031 3.213314732e-031 114.4950027
rwrist  7.062250077e-031 -1.765562519e-031 -4.609200001
rhand  -7.920061211e-032 -33.2840004 9.303460121
rfingers  -90 -7.125020027 -90
rthumb  -92.93752616 -24.25625642 -97.11982154
rfemur  -14.55200005 21.29850006 -0.9326369762
rtibia  -0 0 51.31129837
rfoot  -4.696653104e-032 -19.9822998 -4.741320133
rtoes  5.373923086 19.29304026 -105.8922705
lfemur  -28.96339989 2.450969934 2.552910089
ltibia  -0 0 51.6894989
lfoot  9.061142511e-032 -13.03069973 6.81400013
ltoes  -4.250644065 -19.5611806 -102.515957
12
root  -1.533979975 37.26444395 7.472377687 -179.3129883 -73.54000092 -177.4249878
lowerback  17.5991993 2.745929956 -1.071370006
upperback  4.348780155 2.935389996 -2.389839888
thorax  -5.109109879 1.305220008 -2.55208993
lowerneck  -4.223390102 13.8427 0.4528700113
upperneck  5.956530094 18.84449959 -5.831160069
head  3.323319912 9.156829834 -1.092290044
lclavicle  0 -9.442270133e-015 7.951389973e-016
lhumerus  -36.74349976 1.213439941 78.29579926
lradius  2.834775212e-031 -2.105443786e-031 143.397995
lwrist  0 -1.765562519e-031 6.163730145
lhand  -1.496451383e-031 -27.76390076 20.11240005
lfingers  90 7.125020027 -90
lthumb  89.89689403 5.08795885 91.16245106
rclavicle  0 -9.442270133e-015 7.951389973e-016
rhumerus  -27.2208004 22.00189972 -81.25119781
rradius  -1.37256913e-031 3.253444025e-031 112.8740005
rwrist  7.062250077e-031 3.531125038e-031 -5.562129974
rhand  -7.920061211e-032 -33.2840004 9.303460121
rfingers  -90 -7.125020027 -90
rthumb  -92.93752616 -24.25625642 -97.11982154
rfemur  -14.46199989 20.49259949 -1.294649959
rtibia  -0 0 51.88869858
rfoot  -4.671606506e-032 -19.1196003 -4.34262991
rtoes  5.373923086 19.29304026 -105.8922705
lfemur  -29.30419922 2.958729982 2.164890051
ltibia  -0 0 51.95420074
lfoot  9.073255741e-032 -13.35719967 5.885169983
ltoes  -4.250644065 -19.5611806 -102.515957
13
root  -1.688822236 37.22911144 7.526221989 -176.473999 -74.66699982 179.8330078
lowerback  16.8553009 2.56479001 -2.037359953
upperback  4.330410004 2.563940048 -2.446929932
thorax  -4.785160065 1.137969971 -1.954249978
lowerneck  -4.377560139 13.79829979 0.1951369941
upperneck  5.708119869 18.80170059 -5.989759922
head  3.254379988 9.12899971 -1.105049968
lclavicle  0 -9.442270133e-015 7.951389973e-016
lhumerus  -36.98160172 1.214699984 76.95339966
lradius  2.822527683e-031 -2.121834469e-031 143.0659943
lwrist  -7.062250077e-031 -1.765562519e-031 6.065209866
lhand  -1.496451383e-031 -27.76390076 20.11240005
lfingers  90 7.125020027 -90
lthumb  89.89689403 5.08795885 91.16245106
rclavicle  0 -9.442270133e-015 7.951389973e-016
rhumerus  -29.52669907 22.51490021 -82.36660004
rradius  -1.255482701e-031 3.300395011e-031 110.8270035
rwrist  1.412450015e-030 -3.531125038e-031 -5.119140148
rhand  -7.920061211e-032 -33.2840004 9.303460121
rfingers  -90 -7.125020027 -90
rthumb  -92.93752616 -24.25625642 -97.11982154
rfemur  -14.4321003 19.39150047 -2.382319927
rtibia  -0 0 52.56840134
rfoot  -4.64342609e-032 -18.08979988 -3.258589983
rtoes  5.373923086 19.29304026 -105.8922705
lfemur  -30.18720055 3.343060017 1.050650001
ltibia  -0 0 52.34140015
lfoot  4.530198249e-032 -13.01029968 5.07986021
ltoes  -4.250644065 -19.5611806 -102.515957
14
root  -1.834302249 37.22444369 7.557222411 -171.8740234 -76.16200256 175.0139771
lowerback  16.40979958 2.357789993 -3.522360086
upperback  4.386509895 2.063159943 -2.514319897
thorax  -4.545609951 0.9008290172 -1.066949964
lowerneck  -4.4479599 13.71689987 -0.01661160029
upperneck  5.597270012 18.70899963 -6.120220184
head  3.218199968 9.075099945 -1.119429946
lclavicle  0 -9.442270133e-015 7.951389973e-016
lhumerus  -36.39619827 0.8772349954 74.91400146
lradius  2.791722044e-031 -2.162205371e-031 142.2420044
lwrist  -7.062250077e-031 -1.765562519e-031 6.500619888
lhand  -1.496451383e-031 -27.76390076 20.11240005
lfingers  90 7.125020027 -90
lthumb  89.89689403 5.08795885 91.16245106
rclavicle  0 -9.442270133e-015 7.951389973e-016
rhumerus  -31.83049965 23.00499916 -83.4253006
rradius  -1.12050083e-031 3.348629858e-031 108.5009995
rwrist  -3.531125038e-031 -1.765562519e-031 -4.395820141
rhand  -7.920061211e-032 -33.2840004 9.303460121
rfingers  -90 -7.125020027 -90
rthumb  -92.93752616 -24.25625642 -97.11982154
rfemur  -13.9073 18.27860069 -3.71420002
rtibia  -0 0 53.21030045
rfoot  -4.614488656e-032 -16.95540047 -1.788349986
rtoes  5.373923086 19.29304026 -105.8922705
lfemur  -31.12649918 3.286639929 -0.4001869857
ltibia  -0 0 52.96490097
lfoot  4.515762546e-032 -12.19229984 3.942790031
ltoes  -4.250644065 -19.5611806 -102.515957
